<svg width="390" height="295" viewBox="0 0 390 295" fill="none" xmlns="http://www.w3.org/2000/svg">
<g clip-path="url(#clip0_61_2)">
<path d="M156.059 61.1762H154.636V22.427C154.636 19.4819 154.052 16.5655 152.919 13.8446C151.785 11.1236 150.123 8.65127 148.029 6.56873C145.934 4.48619 143.447 2.83423 140.71 1.70716C137.974 0.580097 135.04 2.49537e-06 132.078 0H49.5028C43.5201 -1.13389e-05 37.7824 2.36281 33.5519 6.56868C29.3215 10.7745 26.9448 16.4789 26.9448 22.4269V235.008C26.9448 237.953 27.5283 240.87 28.6619 243.591C29.7956 246.312 31.4572 248.784 33.5519 250.866C35.6466 252.949 38.1334 254.601 40.8702 255.728C43.6071 256.855 46.5404 257.435 49.5028 257.435H132.078C138.061 257.435 143.798 255.072 148.029 250.867C152.259 246.661 154.636 240.956 154.636 235.008V88.7586H156.059V61.1762Z" fill="#3F3D56"/>
<path d="M132.988 5.83472H122.209C122.705 7.04293 122.894 8.35379 122.76 9.65183C122.626 10.9499 122.173 12.1952 121.441 13.2782C120.709 14.3612 119.72 15.2486 118.562 15.8622C117.404 16.4758 116.111 16.7968 114.799 16.7969H67.4928C66.1804 16.7968 64.8881 16.4759 63.7298 15.8622C62.5715 15.2486 61.5827 14.3613 60.8506 13.2782C60.1186 12.1952 59.6656 10.9499 59.5317 9.65183C59.3977 8.3538 59.587 7.04293 60.0827 5.83472H50.0153C47.803 5.83471 45.6124 6.26792 43.5686 7.1096C41.5247 7.95127 39.6676 9.18494 38.1033 10.7402C36.539 12.2954 35.2981 14.1417 34.4515 16.1737C33.6049 18.2057 33.1692 20.3835 33.1692 22.5829V234.852C33.1692 237.052 33.6049 239.229 34.4515 241.261C35.2981 243.293 36.539 245.14 38.1033 246.695C39.6676 248.25 41.5247 249.484 43.5685 250.326C45.6124 251.167 47.803 251.6 50.0152 251.6H132.988C135.2 251.6 137.391 251.167 139.435 250.326C141.478 249.484 143.336 248.25 144.9 246.695C146.464 245.14 147.705 243.293 148.552 241.261C149.398 239.23 149.834 237.052 149.834 234.852V22.5829C149.834 20.3835 149.398 18.2057 148.552 16.1737C147.705 14.1417 146.464 12.2954 144.9 10.7402C143.336 9.18494 141.478 7.95127 139.435 7.1096C137.391 6.26792 135.2 5.83471 132.988 5.83472Z" fill="white"/>
<path d="M182.525 257.472H0.477815C0.351091 257.472 0.229556 257.422 0.139948 257.333C0.0503407 257.244 0 257.123 0 256.997C0 256.871 0.0503407 256.75 0.139948 256.661C0.229556 256.572 0.351091 256.522 0.477815 256.522H182.525C182.652 256.522 182.774 256.572 182.863 256.661C182.953 256.75 183.003 256.871 183.003 256.997C183.003 257.123 182.953 257.244 182.863 257.333C182.774 257.422 182.652 257.472 182.525 257.472Z" fill="#CBCBCB"/>
<path d="M91.5015 164.212C113.786 164.212 131.851 146.252 131.851 124.096C131.851 101.941 113.786 83.9811 91.5015 83.9811C69.217 83.9811 51.1519 101.941 51.1519 124.096C51.1519 146.252 69.217 164.212 91.5015 164.212Z" fill="#F15A4D"/>
<path d="M87.5031 139.399C86.5954 139.401 85.7118 139.109 84.9855 138.567L84.9405 138.534L75.4577 131.322C75.0186 130.987 74.65 130.57 74.3731 130.093C74.0962 129.617 73.9164 129.091 73.8439 128.546C73.7714 128 73.8077 127.446 73.9507 126.914C74.0937 126.383 74.3406 125.885 74.6773 125.448C75.014 125.011 75.4339 124.645 75.9131 124.37C76.3922 124.094 76.9212 123.916 77.4698 123.844C78.0185 123.772 78.576 123.808 79.1106 123.95C79.6452 124.092 80.1464 124.337 80.5856 124.672L86.7277 129.355L101.242 110.53C101.578 110.093 101.998 109.727 102.477 109.452C102.956 109.176 103.485 108.998 104.033 108.926C104.582 108.854 105.139 108.89 105.673 109.032C106.208 109.174 106.709 109.419 107.148 109.754L107.149 109.755L107.059 109.879L107.151 109.755C108.037 110.432 108.616 111.43 108.763 112.531C108.909 113.632 108.609 114.746 107.931 115.628L90.8587 137.76C90.4637 138.27 89.9559 138.683 89.3746 138.966C88.7933 139.25 88.1542 139.396 87.5068 139.394L87.5031 139.399Z" fill="white"/>
<path d="M331.721 261.415C332.211 260.626 332.789 259.893 333.444 259.232C333.713 258.954 333.998 258.692 334.291 258.437C336.075 256.858 338.25 255.78 340.592 255.314C342.934 254.848 345.358 255.01 347.616 255.785C349.874 256.559 351.884 257.917 353.439 259.72C354.993 261.522 356.037 263.704 356.463 266.041C358.433 258.795 353.304 251.659 348.146 246.177C342.986 240.697 337.088 234.685 337.117 227.176C337.132 222.997 339.188 219.27 342.292 216.506C342.388 216.423 342.483 216.339 342.581 216.258C346.333 213.061 351.16 211.389 356.097 211.575C365.271 212.064 373.281 218.193 378.844 225.464C387.797 237.163 391.721 253.585 385.453 266.902C379.939 278.615 368.18 285.571 356.179 291.162C354.503 291.943 352.831 292.701 351.162 293.435C351.151 293.437 351.139 293.445 351.128 293.448C351.047 293.483 350.967 293.518 350.892 293.554C350.547 293.706 350.203 293.857 349.861 294.006L350.019 294.109L350.513 294.426C350.342 294.323 350.172 294.223 350.001 294.12C349.95 294.089 349.897 294.06 349.846 294.029C343.952 290.513 337.975 286.793 333.903 281.303C329.68 275.604 327.982 267.44 331.721 261.415Z" fill="#ABC4A7"/>
<path d="M371.046 248.178C372.352 251.13 373.217 254.256 373.615 257.456C373.928 260.309 373.81 263.194 373.266 266.012C372.095 271.805 369.543 277.234 365.822 281.842C363.016 285.34 359.776 288.472 356.179 291.162C354.504 291.943 352.831 292.701 351.162 293.435C351.151 293.437 351.139 293.445 351.128 293.448C351.048 293.483 350.967 293.518 350.892 293.555C350.547 293.706 350.203 293.857 349.861 294.006L350.02 294.109L350.513 294.426C350.342 294.323 350.173 294.224 350.002 294.12C349.951 294.089 349.897 294.06 349.846 294.029C351.143 289.518 351.334 284.763 350.402 280.164C349.471 275.565 347.444 271.254 344.491 267.594C341.523 263.98 337.738 261.115 333.444 259.232C333.714 258.954 333.998 258.692 334.291 258.437C335.945 259.192 337.529 260.091 339.023 261.123C344.369 264.796 348.383 270.083 350.471 276.201C352.335 281.751 352.568 287.715 351.142 293.392C351.438 293.199 351.735 293.002 352.024 292.806C357.515 289.124 362.576 284.703 366.388 279.281C369.675 274.699 371.779 269.383 372.514 263.802C373.245 257.705 371.71 251.71 368.972 246.27C365.949 240.451 362.14 235.069 357.65 230.276C353.14 225.35 348.041 220.991 342.467 217.297C342.341 217.212 342.253 217.083 342.221 216.936C342.188 216.789 342.214 216.635 342.292 216.506C342.352 216.389 342.456 216.3 342.581 216.258C342.645 216.242 342.712 216.24 342.776 216.253C342.841 216.266 342.901 216.294 342.954 216.333C343.642 216.79 344.324 217.25 344.998 217.725C350.612 221.677 355.71 226.307 360.176 231.508C364.491 236.522 368.418 242.093 371.046 248.178Z" fill="white"/>
<path d="M250.873 18.6266C255.606 18.6266 259.442 14.8123 259.442 10.1072C259.442 5.40203 255.606 1.58777 250.873 1.58777C246.14 1.58777 242.304 5.40203 242.304 10.1072C242.304 14.8123 246.14 18.6266 250.873 18.6266Z" fill="#F1F1F1"/>
<path d="M357.426 132.636C360.311 132.636 362.65 130.311 362.65 127.442C362.65 124.573 360.311 122.248 357.426 122.248C354.54 122.248 352.201 124.573 352.201 127.442C352.201 130.311 354.54 132.636 357.426 132.636Z" fill="#F1F1F1"/>
<path d="M204.525 146.887C207.41 146.887 209.749 144.562 209.749 141.693C209.749 138.825 207.41 136.499 204.525 136.499C201.639 136.499 199.3 138.825 199.3 141.693C199.3 144.562 201.639 146.887 204.525 146.887Z" fill="#F1F1F1"/>
<path d="M207.475 295H389.522C389.649 295 389.77 294.95 389.86 294.861C389.95 294.772 390 294.651 390 294.525C390 294.399 389.95 294.278 389.86 294.189C389.77 294.1 389.649 294.05 389.522 294.05H207.475C207.348 294.05 207.226 294.1 207.137 294.189C207.047 294.278 206.997 294.399 206.997 294.525C206.997 294.651 207.047 294.772 207.137 294.861C207.226 294.95 207.348 295 207.475 295Z" fill="#CBCBCB"/>
<path d="M369.432 45.9055C369.671 44.2182 369.279 42.5023 368.331 41.0831C367.382 39.6638 365.943 38.6397 364.286 38.2049C362.629 37.77 360.869 37.9546 359.34 38.7237C357.81 39.4928 356.618 40.7929 355.988 42.3778L341.215 59.2152L345.55 71.2512L360.407 51.5773C361.376 51.886 362.402 51.9797 363.412 51.8517C364.421 51.7236 365.391 51.377 366.251 50.8363C367.112 50.2955 367.843 49.5738 368.392 48.7219C368.942 47.8699 369.297 46.9086 369.432 45.9055Z" fill="#FFB7B7"/>
<path d="M308.197 111.42L357.235 59.3895L350.62 48.9348L289.115 100.65L308.197 111.42Z" fill="#3F3D56"/>
<path d="M297.252 79.8068C306.752 79.8068 314.454 72.1502 314.454 62.7053C314.454 53.2604 306.752 45.6039 297.252 45.6039C287.752 45.6039 280.051 53.2604 280.051 62.7053C280.051 72.1502 287.752 79.8068 297.252 79.8068Z" fill="#2F2E41"/>
<path d="M298.635 53.0445C302.337 49.3128 306.816 46.4331 311.758 44.6082C314.93 43.4399 318.382 42.718 321.698 43.3815C325.015 44.045 328.151 46.3259 329.076 49.5607C329.833 52.2059 329.052 55.054 327.877 57.544C326.703 60.0341 325.136 62.3431 324.186 64.9261C323.218 67.5616 322.926 70.396 323.339 73.1719C323.751 75.9477 324.855 78.5772 326.549 80.8216C328.243 83.066 330.474 84.8543 333.039 86.0241C335.605 87.1938 338.423 87.7081 341.239 87.5201C337.981 87.9545 334.977 89.4768 331.792 90.2871C328.608 91.0974 324.848 91.0425 322.482 88.774C319.977 86.3739 319.927 82.4716 320.048 79.0155C320.228 73.878 320.408 68.7404 320.588 63.6029C320.68 60.9828 320.759 58.2788 319.808 55.8333C318.858 53.3879 316.599 51.2465 313.962 51.2688C311.964 51.2856 310.195 52.4893 308.592 53.6763C306.989 54.8633 305.293 56.1297 303.302 56.3063C301.312 56.4828 299.039 55.0182 299.188 53.0368L298.635 53.0445Z" fill="#2F2E41"/>
<path d="M231.921 177.533C230.269 177.989 228.507 177.827 226.968 177.078C225.428 176.329 224.219 175.044 223.569 173.467C222.919 171.891 222.873 170.132 223.44 168.524C224.007 166.916 225.148 165.571 226.646 164.743L241.506 147.982L254.075 150.682L236.397 167.896C236.832 168.811 237.059 169.81 237.063 170.822C237.068 171.834 236.849 172.835 236.422 173.754C235.995 174.673 235.371 175.487 234.593 176.14C233.815 176.793 232.903 177.269 231.921 177.533Z" fill="#FFB7B7"/>
<path d="M280.811 117.527L243.773 163.749L232.483 158.596L276.017 91.2134L280.811 117.527Z" fill="#3F3D56"/>
<path d="M251.258 257.097L242.431 256.959L243.493 286.871H251.257L251.258 257.097Z" fill="#FFB7B7"/>
<path d="M253.237 284.351L237.947 284.35H237.946C235.362 284.35 232.883 285.371 231.056 287.188C229.229 289.004 228.202 291.468 228.202 294.038V294.352L253.237 294.353L253.237 284.351Z" fill="#2F2E41"/>
<path d="M309.703 249.164L300.06 255.318L319.349 278.389L325.882 274.218L309.703 249.164Z" fill="#FFB7B7"/>
<path d="M326.179 271.034L313.312 279.247L313.312 279.247C311.137 280.635 309.606 282.825 309.056 285.336C308.505 287.846 308.981 290.471 310.377 292.633L310.548 292.898L331.615 279.451L326.179 271.034Z" fill="#2F2E41"/>
<path d="M313.138 157.827C313.138 157.827 291.713 87.0809 284.828 86.1249C277.942 85.1688 266.849 104.278 266.849 104.278C252.465 122.523 237.633 181.624 237.633 181.624C237.633 181.624 262.358 183.162 280.433 192.723C298.507 202.283 319.837 192.239 319.837 192.239L313.138 157.827Z" fill="#3F3D56"/>
<path opacity="0.1" d="M313.138 157.827C313.138 157.827 291.713 87.0809 284.828 86.1249C277.942 85.1689 269.666 104.472 269.666 104.472C262.499 133.924 237.633 181.624 237.633 181.624C237.633 181.624 262.358 183.162 280.433 192.723C298.507 202.283 319.837 192.239 319.837 192.239L313.138 157.827Z" fill="black"/>
<path d="M295.561 136.661V172.21L299.769 223.706L320.793 262.66L310.758 269.785L282.09 232.732L270.75 195.941L252.943 277.386L239.564 276.436L248.856 163.514L266.487 131.729L295.561 136.661Z" fill="#2F2E41"/>
<path d="M273.959 102.276C267.269 108.927 273.481 116.052 273.481 116.052L265.836 133.154L295.938 141.229L306.458 94.4957L299.291 86.895C284.956 86.42 284.949 86.1246 284.949 86.1246C282.437 88.5682 273.959 102.276 273.959 102.276Z" fill="#FFF963"/>
<path d="M307.67 89.6541C306.303 88.6508 304.749 87.9271 303.099 87.525C301.448 87.1229 299.734 87.0504 298.055 87.3117C296.376 87.5729 294.766 88.1628 293.318 89.047C291.87 89.9313 290.613 91.0924 289.62 92.4631C282.052 102.939 275.055 119.854 284.696 140.951C300.177 174.826 313.648 192.167 319.125 192.166C319.364 192.168 319.602 192.13 319.829 192.056C323.2 190.919 328.074 185.247 328.956 180.25C329.272 178.461 329.197 175.969 327.045 174.258C320.865 169.344 309.769 154.04 306.307 133.897C304.394 122.767 308.104 112.629 311.553 106.084C313.009 103.375 313.436 100.236 312.753 97.2409C312.071 94.2457 310.325 91.5954 307.837 89.7759L307.67 89.6541Z" fill="#3F3D56"/>
<path d="M298.137 78.1267C304.273 74.7919 306.528 67.143 303.174 61.0425C299.82 54.942 292.126 52.7 285.99 56.0348C279.854 59.3697 277.599 67.0185 280.953 73.119C284.307 79.2195 292.001 81.4616 298.137 78.1267Z" fill="#FFB7B7"/>
<path d="M274.256 66.129H292.54L292.728 63.5192L293.665 66.129H296.48L296.852 60.9565L298.71 66.129H304.157V65.8727C304.153 62.2717 302.713 58.8193 300.151 56.273C297.59 53.7267 294.118 52.2944 290.496 52.2903H287.918C284.296 52.2943 280.823 53.7266 278.262 56.273C275.701 58.8193 274.26 62.2717 274.256 65.8727V66.129Z" fill="#2F2E41"/>
<path d="M301.395 75.5097L309.198 72.9926V54.1546H294.46L294.825 54.5168C299.901 59.5574 305.548 77.4408 301.395 75.5097Z" fill="#2F2E41"/>
</g>
<defs>
<clipPath id="clip0_61_2">
<rect width="390" height="295" fill="white"/>
</clipPath>
</defs>
</svg>
